<mxfile host="app.diagrams.net" modified="2024-01-15T19:48:32.491Z" agent="Mozilla/5.0 (Windows NT 10.0; Win64; x64) AppleWebKit/537.36 (KHTML, like Gecko) Chrome/120.0.0.0 Safari/537.36" etag="v6GlrgFyZEQVF_0-0Hrb" version="22.1.18" type="github">
  <diagram name="Page-1" id="7h6Uq-zENOJJIKZPsCv7">
    <mxGraphModel dx="1434" dy="746" grid="1" gridSize="10" guides="1" tooltips="1" connect="1" arrows="1" fold="1" page="1" pageScale="1" pageWidth="3300" pageHeight="4681" math="0" shadow="0">
      <root>
        <mxCell id="0" />
        <mxCell id="1" parent="0" />
        <mxCell id="RtatZb-KeQutIyaIO_Rb-1" value="" style="shape=stencil(lZzZkhzHDUW/Zl4rcl+eZfk/FCHKZJgmFRS9/b2RnshW10XVaemN7El0VSKxXFwg+y3/8NvHn3798JbCb9+/ff37h39/+vn7x7f8l7eUPn35+OHbp+/2r7f841v+4Zev3z787dvXf375+f3/v/60Vq5//ePrv9Y3/OddLh2lLKEU/vv+wZxHnf//5K/v6z9/+nJaH+t5fTnquF8fj3leP8aRO60f5/cZ+RiB1rdxWt/H0RKtz+fv73nv6HJ9OGY6rW/9GKCfcNR4Xp+PhOvj+f3rPDLoMxwhnNe3o+D7p/N+azkK6Mf228/rTT+F7KGc9VPTkeP9+nLMousDrB9HmW492dtD3c8vRALzSFUF6IRT2wb8pKIGW8jlCOnPnEExJxCBeiTYQ5nbR56sIsIeat9O8hDoqNZm5xZVYLZ7gR6PIgLj6BkE+hFlD3P76rVlxKM3FaAnjHr0ogITtDTMNMSZAzrDtOiYVCBB9LLgWbp7Aqh12rl2tweIp9PU6s5hgrXaE4ZEpH4keiVTq7xSOTKEpJmdLQW01mm2dDaNUo4O1mo5ppxNI9snJFBVrTkeFdQ6nItaZKvg0ystnfcQLZGQP5haRSCyx2UNxXxu5qFNlHQMWh92HH28EG6gTYUWAb+/mYbO69OOm9fr+9GrvH8AX2tNoYuZKX1/3up++Ca/T1QbGtv1bmPw+X1i2GDmWiCrG1iy67DjMo561qjZHMWvko+cz0cQtp1fp7a+j/TJDTAXJsVHpqUMezAjrudXMs/s8ASzmiGuXNDu4iMvPQTsZCAcRQsWZ4HCUT66tFAYk0wNXxbvSEl9G/JjfcUYb6FF1vcNgm5Am9iRWVaB9zGzPGMwAygZQkXWI7OEQHinOUBlZoogUiJLjQjA7MCyQ6mERWLbQOIJE5JrLiuVLFsRvJhNVNHRwDPLLo9bgEqEzIsrXR6fXFuRqwUthBOINKgiaKezL6+QfXYEy4rkaT1pDLa8Sye9UOf5CZbZIzzB/pxFIOMTRlGYamCDKrZh0UfySMdENYMiZwOulKkMpgYp+gMW/YbYBCoYJCPkbJhQylT7CoR4TUOkQWOE2lULVXsCFZ4mIOnW9kAgcu2hq1o77aFoLW8HR2HS3lifUDZKvAPCAnnMHBtEDTtXqYbNHxDXDk3o5nHE79gWJTeYD5JPj6YO1LiCMXfJEpcez7zzOA1klV0066YN+3V6Qt7p+CGQdmi7FkhaLlgwrhRmXAaywrDTHuLOgH+wMDSB5JgnctERtrs8ZSBCMSYgsGRBXjCNPh0OsCQGodIESlYBwtxm/boHSyicHzSxG/gALfW2z/VJYIIt9eLAiWVRKgzTVuIfJEqscEuOZCB4uPxLHCjtnHTHDkmpt6AD1YZxA4WHQNuY965YElsyrEFZtGaNGqaGQvBnKqjsD278Di+VczDuBeNSdiydGQupNVdlGs1+iQy30ki4zME1t1UOwkqsSEV0b1GSYeEbOIdF0EuOa0zQT6UZVscAnmA1bT676ODIZ/WbeNwimMBaoyNwDUFRMLb6oTpwQlxJjGre8wEbrwWCmrfBFUooMbs9VARYVtLU6V6JTCNuaP4kQBVKcqHStERqzclBOEaV+ZHRng+OgkDVPD258Fs1kHtChJO24C4VykLjsIcFRYZ7AvNoI6sAVdM9O2tNr4qm7gQqlTRx//lJoJFA0eJ1HRxx+11JnCVAvHjQwm8JEM2drgSo4MjHDG7TXNII5psJwfocF1rCStE1NJYA1Q9zk9rPpkGbnlemwU+Y7uCQfQuuBToflN/tI+TkLBjSUU/F0iaQXqhpqEDmJyQnQGDDjnq60EcVxxza4Xv9BOF+1x6ojTOUdlhaItvoFyV7oFfq2ixeJ82v5BM1Iay1Bxe+ifOaQ0Hfcggq2ceFQ7xwOVXrS6cubtPILs/tYM97YIHhBJB2mFo1rYPjsDGdP1AzZ7pScUEBDgJKYeVXahVYOZnoM4HgnoAu+qcFqvbUFzHHBJOPGiiQlMIyAWQGHw3xZwGiHbq2NZcAZfbiIFneMyF3YKP4gyNS4OqViErs+eIJhEObDwKcgRboc2GGWIR6FcgGcfHJZaC0M/EdNPbRmwqI7Aq5FyedXU/ECghiQqyAUGjMw2hWokgzcRVBVFs2t+mKfR0rs3TTbbvUXSGnxtewkJt7XOppPQ3UjYtCkVDocKG7bBx7twHNVwUptRhdvmKgYdW0B9JU0Fi9roVlxCEzO+YkPZqJVE4c6j2DxwJTUNJuNKwTU9ZYP1it5gzCaoyEk4c5KOAb3HXNRdvSfSDgy0MHfXrbHY/rGJO1TrRQi0HJYdAekb9afVzXfSBKrTZH9XfEoNVhn1axPFkDokLPZoz1zVlrS6jWxQjIKwU0DVOidOMsvxCOtmMKQsS/GD4qOoKweHUisZuWrrViCrWsrg3zgjVZn9rONoFAJEW4eALVAr836572gKxG0mC/pn0J+yQFrS/OYSQ3vDfwHEZWGqQOpDZHVh7RPISKB4tzwbW+sGFeNOeuSQfSUlGyqHGoHFWpTXNR7IpW11GsfA5NyxMLM2StC0dLj4a708MH4xelbticx0OgItJY3WkJxoNZkKygdfBczoJ3rmGOdJQb+TW9IUfR1DQMCVC7YnZ3geJFS96TGnnP6N8JKBFfscnpB3InG5+pdTgI92IepLsC6EVdWR3xiLSJu3exIBxFDde+WxCOgrHHSx1nHS2QiVpH5Q57cI2pjAIrx0k3LiJNbnk6nTdtHjdpcK5qFu0VafLqRkgtatAoYo164WTN9YItGeaTpNi4MZWbYg0L9wSwkhvwXCPw1MlKOpez0i51FB0iq4W7cW72umaeQ3DXch6Z/voYNLLauRBqzWp5NSI7lpT2qQGjXtTSvkwcvkra+TakT4WAG8gpHQfUisbU0tD5mzpaqTivMBSSlJcNYDHqEncEvKtxhTzMk3vS3Y37d5ylXGd21qkVgJT/U1NuPEc06uyYALNzoonN9YUWs4OkVFiS2nUKaNfFDRPEhnTJ4tHOe4gZCZ8VSkSAr/wYXNaRPGRYW9IiumLwakWbVxlTgoVnATDcPWhNCdyI3EpzE/8BQ4XhXqmfA7YOetB0ELAx1t0VU74aZAlSCIDMSbyoUfdXha3URzFi59oKW+kCrFjAJZtkjxdXZQxLVYktkUlJ177JY5/iHYAccnmncG/c9UrKRGg0uzJDlsPxKt5whW1Hz189XHfDEXtWY0+GPFXC2DtsytCZANFh6/6hewJeJ3TQaAlQIpx6/3AJEC6vGo7W5CvfA61u00SSGMwejmCgmf8LOmxyyCtuRHNgcl7jjYKnOh5ccYMZa8yUrvC4EZxFuBEizO56bcXSOTV305SL8zgdaZhxomZl1qQCNJfhmvWWrcm6XXVUueuWlEFfV/Roas+ZRUE7iu6meeN7S+6MJ3dWHC+ceWLvYhKfqoqkmbY/TvAGxUu8W7dmCQ9q5h8ZOTB3gfLFaGl2g6IF59yym2KYOzbdre+6vvH6qOsp82c3xzQxqmSd1V1zGXheyurw5K27Xvo0zHUjIGXmK4HkRr046ydHZE2sM/0E6mTuQemT+aruLd4i8OdY/uzPt7xab//4/bdifvn0+fP7T808/11/W8Y+ev9dmvzj/wA=);lineShape=1;strokeColor=default;" parent="1" vertex="1">
          <mxGeometry x="357.1115024294006" y="175.03889500489038" width="183.40127105535748" height="328.3709699531295" as="geometry" />
        </mxCell>
      </root>
    </mxGraphModel>
  </diagram>
</mxfile>
